<svg xmlns="http://www.w3.org/2000/svg" data-name="Layer 1" viewBox="0 0 1000 1250" x="0px" y="0px"><title>5688-Sightseeing</title><path d="M404.88,301.56a16,16,0,0,1-15.65-19.4l6.43-29.61c4.49-20.69-17.65-43.79-48.35-50.46-16-3.47-31.78-2.19-44.52,3.59-11.14,5.06-18.39,13-20.41,22.28L276,257.56a16,16,0,1,1-31.27-6.78l6.43-29.61c4.22-19.44,17.88-35.29,38.45-44.63,19-8.6,41.89-10.64,64.54-5.72s42.66,16.27,56.35,32c14.85,17,20.7,37.12,16.48,56.55L420.5,289A16,16,0,0,1,404.88,301.56Z"/><path d="M245.89,771.35A102.46,102.46,0,0,1,224.22,769a100.67,100.67,0,1,1,21.67,2.34Zm-.21-170.45a69.21,69.21,0,1,0,67.64,83.89h0a69.27,69.27,0,0,0-67.64-83.89Z"/><path d="M246,831.83a163.14,163.14,0,0,1-34.62-3.74C124.28,809.18,68.8,722.92,87.71,635.81S192.88,493.22,280,512.13,422.58,617.3,403.67,704.41h0A161.83,161.83,0,0,1,246,831.83Zm-.34-291.39C186,540.44,132.15,582,119,642.6a129.66,129.66,0,0,0,253.42,55h0c15.17-69.86-29.33-139-99.2-154.22A129.92,129.92,0,0,0,245.67,540.44Z"/><path d="M390.92,674.3a16.32,16.32,0,0,1-3.31-.34A16,16,0,0,1,375,656.87l21.45-319.36c.41-6.06.9-11.15,1.55-16,1.2-9-1.12-18.49-6.72-27.56-10.69-17.31-31.64-30.81-56.05-36.11s-49.07-1.7-66,9.62c-8.84,5.93-14.91,13.64-17.53,22.28-1.42,4.68-3.08,9.51-5.22,15.2l-113,299.61a16,16,0,0,1-30.68-8.88,15.67,15.67,0,0,1,.65-2.19l113-299.83c1.9-5,3.34-9.21,4.55-13.19,4.79-15.8,15.28-29.49,30.35-39.59,24.35-16.3,57.37-21.51,90.58-14.3s61.1,25.64,76.49,50.57c9.53,15.44,13.4,32.25,11.21,48.62-.55,4.13-1,8.54-1.34,13.89L406.87,659.37a15.2,15.2,0,0,1-.31,2.22A16,16,0,0,1,390.92,674.3Z"/><path d="M595.12,301.56A16,16,0,0,1,579.5,289l-6.43-29.61c-4.22-19.43,1.63-39.52,16.48-56.55,13.69-15.7,33.71-27,56.35-32s45.57-2.88,64.54,5.72c20.57,9.34,34.23,25.19,38.45,44.63l6.43,29.61a16,16,0,1,1-31.27,6.78L717.62,228c-4.49-20.69-34.23-32.54-64.93-25.87-16,3.47-29.82,11.18-39,21.73-8,9.22-11.35,19.43-9.33,28.73l6.43,29.61a16,16,0,0,1-15.65,19.4Z"/><path d="M754.29,771.32a101.37,101.37,0,0,1-98.88-79.74h0a101.17,101.17,0,1,1,98.88,79.74Zm-67.61-86.53a69.21,69.21,0,1,0,53-82.3,68.79,68.79,0,0,0-53,82.3Z"/><path d="M754,831.83A161.85,161.85,0,0,1,593.13,657.22c0-.07,0-.14,0-.21A161.7,161.7,0,0,1,821.84,523.22a163,163,0,0,1,73.69,68.13l.26.48A161.7,161.7,0,0,1,788.61,828.09h0A163.14,163.14,0,0,1,754,831.83ZM625.06,659.41c0,.07,0,.13,0,.2A129.7,129.7,0,0,0,781.82,796.82h0A129.73,129.73,0,0,0,867.58,607c-.08-.16-.17-.31-.25-.46a129.71,129.71,0,0,0-242.27,52.91Z"/><path d="M609.1,674.31a16,16,0,0,1-16-15.15L571.65,339.63c-.37-5.39-.79-9.78-1.33-13.79-2.21-16.39,1.66-33.22,11.19-48.68,15.4-24.94,43.28-43.37,76.5-50.58s66.22-2,90.57,14.29c15.06,10.09,25.55,23.76,30.34,39.54,1.23,4,2.73,8.38,4.57,13.28l113,299.8a16,16,0,1,1-30.14,10.76L753.55,305c-2.09-5.56-3.81-10.55-5.24-15.27-2.63-8.63-8.69-16.32-17.54-22.25-16.9-11.32-41.57-14.91-66-9.61s-45.36,18.8-56.06,36.12c-5.59,9.07-7.92,18.62-6.71,27.59.64,4.74,1.13,9.8,1.54,15.93l21.49,319.73c0,.36,0,.72,0,1.08A16,16,0,0,1,609.1,674.31Z"/><path d="M603.7,593.75a16.89,16.89,0,0,1-1.87-.11,880.23,880.23,0,0,0-203.66,0,16,16,0,0,1-3.7-31.79,912.91,912.91,0,0,1,211.06,0,16,16,0,0,1-1.83,31.9Z"/><path d="M589.31,379.57a14.89,14.89,0,0,1-1.62-.08,880,880,0,0,0-175.38,0,16,16,0,0,1-3.2-31.84,912.57,912.57,0,0,1,181.78,0,16,16,0,0,1-1.58,31.92Z"/><path d="M599.76,535a15.51,15.51,0,0,1-1.8-.1,880.21,880.21,0,0,0-195.91,0,16,16,0,0,1-3.57-31.8,911.68,911.68,0,0,1,203,0,16,16,0,0,1-1.76,31.9Z"/><path d="M587,321.1h0a16,16,0,1,1,16-16A16,16,0,0,1,587,321.1Z"/><text x="0" y="1015" fill="#000000" font-size="5px" font-weight="bold" font-family="'Helvetica Neue', Helvetica, Arial-Unicode, Arial, Sans-serif">Created by IYIKON</text><text x="0" y="1020" fill="#000000" font-size="5px" font-weight="bold" font-family="'Helvetica Neue', Helvetica, Arial-Unicode, Arial, Sans-serif">from the Noun Project</text></svg>